<svg width="33" height="32" viewBox="0 0 33 32" fill="none" xmlns="http://www.w3.org/2000/svg">
<path fill-rule="evenodd" clip-rule="evenodd" d="M18.1872 2V4.43513H20.2497V2H18.1872ZM30.9375 12.3639H28.4263L28.4263 14.3639H30.9375V12.3639ZM26.6771 8.03351L28.8518 6.81594L29.8831 8.54799L27.7083 9.76556L26.6771 8.03351ZM24.1849 3.02245L22.9293 5.13133L24.7155 6.13133L25.9711 4.02245L24.1849 3.02245ZM13.7214 6.13133L12.4658 4.02245L14.252 3.02245L15.5076 5.13133L13.7214 6.13133ZM30.9375 22.75C30.9375 19.7235 29.091 17.1301 26.4678 16.0442C26.7929 15.2109 26.9709 14.3075 26.9709 13.3638C26.9709 9.17971 23.473 5.78784 19.1582 5.78784C16.8703 5.78784 14.8122 6.74142 13.3833 8.26106C13.22 8.25371 13.0558 8.25 12.8906 8.25C6.91042 8.25 2.0625 13.1189 2.0625 19.125C2.0625 25.1311 6.91042 30 12.8906 30C12.9585 30 13.0263 29.9994 13.0939 29.9981V30H23.7135L23.7187 30L23.724 30H23.9677V29.9958C27.8392 29.864 30.9375 26.6704 30.9375 22.75ZM24.9084 13.3638C24.9084 14.1349 24.747 14.8693 24.4551 15.5373C24.213 15.5126 23.9673 15.5 23.7187 15.5C23.5142 15.5 23.3117 15.5085 23.1115 15.5253C21.9704 12.257 19.3191 9.702 15.9982 8.7045C16.905 8.12506 17.991 7.78784 19.1582 7.78784C22.3339 7.78784 24.9084 10.2843 24.9084 13.3638ZM12.8906 28L12.933 27.9999V28L13.0939 28L23.716 28H23.7187L23.7231 28C26.5013 27.9976 28.875 25.7147 28.875 22.75C28.875 19.7838 26.4988 17.5 23.7187 17.5C22.9658 17.5 22.2424 17.6675 21.5879 17.9708C21.4989 17.2839 21.3314 16.6218 21.0947 15.9939L21.097 15.993C19.8381 12.6095 16.6003 10.25 12.8906 10.25C8.11712 10.25 4.125 14.1567 4.125 19.125C4.125 24.0933 8.11712 28 12.8906 28Z" fill="#FF9D41"/>
</svg>
